<svg width="362" height="159" xmlns="http://www.w3.org/2000/svg" xmlns:xlink="http://www.w3.org/1999/xlink" overflow="hidden"><defs><filter id="fx0" x="-10%" y="-10%" width="120%" height="120%" filterUnits="userSpaceOnUse" primitiveUnits="userSpaceOnUse"><feComponentTransfer color-interpolation-filters="sRGB"><feFuncR type="discrete" tableValues="0.431373 0.431373"/><feFuncG type="discrete" tableValues="0.454902 0.454902"/><feFuncB type="discrete" tableValues="0.478431 0.478431"/><feFuncA type="linear" slope="0.431373" intercept="0"/></feComponentTransfer><feGaussianBlur stdDeviation="1.07986 1.07986"/></filter><filter id="fx1" x="-10%" y="-10%" width="120%" height="120%" filterUnits="userSpaceOnUse" primitiveUnits="userSpaceOnUse"><feComponentTransfer color-interpolation-filters="sRGB"><feFuncR type="discrete" tableValues="0.431373 0.431373"/><feFuncG type="discrete" tableValues="0.454902 0.454902"/><feFuncB type="discrete" tableValues="0.478431 0.478431"/><feFuncA type="linear" slope="0.431373" intercept="0"/></feComponentTransfer><feGaussianBlur stdDeviation="1.07986 1.07986"/></filter><filter id="fx2" x="-10%" y="-10%" width="120%" height="120%" filterUnits="userSpaceOnUse" primitiveUnits="userSpaceOnUse"><feComponentTransfer color-interpolation-filters="sRGB"><feFuncR type="discrete" tableValues="0.431373 0.431373"/><feFuncG type="discrete" tableValues="0.454902 0.454902"/><feFuncB type="discrete" tableValues="0.478431 0.478431"/><feFuncA type="linear" slope="0.431373" intercept="0"/></feComponentTransfer><feGaussianBlur stdDeviation="1.07986 1.07986"/></filter><filter id="fx3" x="-10%" y="-10%" width="120%" height="120%" filterUnits="userSpaceOnUse" primitiveUnits="userSpaceOnUse"><feComponentTransfer color-interpolation-filters="sRGB"><feFuncR type="discrete" tableValues="0.431373 0.431373"/><feFuncG type="discrete" tableValues="0.454902 0.454902"/><feFuncB type="discrete" tableValues="0.478431 0.478431"/><feFuncA type="linear" slope="0.431373" intercept="0"/></feComponentTransfer><feGaussianBlur stdDeviation="1.07986 1.07986"/></filter><filter id="fx4" x="-10%" y="-10%" width="120%" height="120%" filterUnits="userSpaceOnUse" primitiveUnits="userSpaceOnUse"><feComponentTransfer color-interpolation-filters="sRGB"><feFuncR type="discrete" tableValues="0.431373 0.431373"/><feFuncG type="discrete" tableValues="0.454902 0.454902"/><feFuncB type="discrete" tableValues="0.478431 0.478431"/><feFuncA type="linear" slope="0.431373" intercept="0"/></feComponentTransfer><feGaussianBlur stdDeviation="1.07986 1.07986"/></filter><filter id="fx5" x="-10%" y="-10%" width="120%" height="120%" filterUnits="userSpaceOnUse" primitiveUnits="userSpaceOnUse"><feComponentTransfer color-interpolation-filters="sRGB"><feFuncR type="discrete" tableValues="0.431373 0.431373"/><feFuncG type="discrete" tableValues="0.454902 0.454902"/><feFuncB type="discrete" tableValues="0.478431 0.478431"/><feFuncA type="linear" slope="0.431373" intercept="0"/></feComponentTransfer><feGaussianBlur stdDeviation="1.07986 1.07986"/></filter><filter id="fx6" x="-10%" y="-10%" width="120%" height="120%" filterUnits="userSpaceOnUse" primitiveUnits="userSpaceOnUse"><feComponentTransfer color-interpolation-filters="sRGB"><feFuncR type="discrete" tableValues="0.431373 0.431373"/><feFuncG type="discrete" tableValues="0.454902 0.454902"/><feFuncB type="discrete" tableValues="0.478431 0.478431"/><feFuncA type="linear" slope="0.431373" intercept="0"/></feComponentTransfer><feGaussianBlur stdDeviation="1.07986 1.07986"/></filter><clipPath id="clip7"><rect x="459" y="293" width="362" height="159"/></clipPath><clipPath id="clip8"><rect x="47" y="36" width="54" height="65"/></clipPath><clipPath id="clip9"><rect x="50" y="39" width="26" height="60"/></clipPath><clipPath id="clip10"><rect x="48" y="53" width="42" height="47"/></clipPath><clipPath id="clip11"><rect x="50" y="36" width="47" height="62"/></clipPath><clipPath id="clip12"><rect x="48" y="55" width="42" height="45"/></clipPath><clipPath id="clip13"><rect x="48" y="55" width="42" height="45"/></clipPath><clipPath id="clip14"><rect x="48" y="36" width="45" height="63"/></clipPath></defs><g clip-path="url(#clip7)" transform="translate(-459 -293)"><g clip-path="url(#clip8)" filter="url(#fx0)" transform="translate(458 292)"><g><path d="M20.1445-44.6484C19.3945-39.4219 18.7734-35.5312 18.2812-32.9766 21.8906-33.8906 24.9141-34.3477 27.3516-34.3477 32.7188-34.3477 36.5859-34.1133 38.9531-33.6445 41.3203-33.1758 42.5039-31.9687 42.5039-30.0234 42.5039-28.3594 41.9121-26.959 40.7285-25.8223 39.5449-24.6855 38.2383-24.1172 36.8086-24.1172 35.0508-24.1172 33.1992-24.2109 31.2539-24.3984 29.3789-24.5859 27.5742-24.6797 25.8398-24.6797 24.1523-24.6797 21.1055-24.1523 16.6992-23.0977L13.2539-1.08984C13.043 0.222656 12.3574 1.35352 11.1973 2.30273 10.0371 3.25195 8.70703 3.72656 7.20703 3.72656 5.87109 3.72656 4.8457 3.27539 4.13086 2.37305 3.41602 1.4707 3.16406 0.316406 3.375-1.08984L9.70312-41.3438C9.9375-42.8438 10.1836-44.2031 10.4414-45.4219 10.7461-46.8281 11.0039-48.2227 11.2148-49.6055 11.4492-50.9883 12.082-52.1367 13.1133-53.0508 14.1445-53.9648 15.3867-54.4219 16.8398-54.4219 17.7773-54.4219 18.5273-54.2578 19.0898-53.9297 24.5742-54.8437 29.2031-55.3008 32.9766-55.3008 35.7656-55.3008 39.252-54.6855 43.4355-53.4551 47.6191-52.2246 49.7109-50.7891 49.7109-49.1484 49.7109-48.0469 49.1426-46.8984 48.0059-45.7031 46.8691-44.5078 45.5508-43.9102 44.0508-43.9102 43.5352-43.9102 42.9609-44.0391 42.3281-44.2969 39.4219-45.2344 35.8008-45.7031 31.4648-45.7031 28.9336-45.7031 25.1602-45.3516 20.1445-44.6484Z" fill="#6EAAE6" transform="translate(47.8337 95)"/></g></g><text fill="#6EAAE6" font-family="Comic Sans MS,Comic Sans MS_MSFontService,sans-serif" font-style="italic" font-weight="700" font-size="72" transform="translate(505.834 384)">F</text><g clip-path="url(#clip9)" filter="url(#fx1)" transform="translate(503 292)"><g><path d="M13.3945-46.6875C13.3945-48.3047 14.0625-49.6992 15.3984-50.8711 16.7344-52.043 18.1992-52.6289 19.793-52.6289 21.1289-52.6289 22.2656-52.2012 23.2031-51.3457 24.1406-50.4902 24.6094-49.4531 24.6094-48.2344 24.6094-46.6641 23.9473-45.2754 22.623-44.0684 21.2988-42.8613 19.8047-42.2578 18.1406-42.2578 16.7812-42.2578 15.6504-42.6914 14.748-43.5586 13.8457-44.4258 13.3945-45.4688 13.3945-46.6875ZM9.73828 1.08984C8.44922 1.08984 7.41797 0.720703 6.64453-0.0175781 5.87109-0.755859 5.48438-1.69922 5.48438-2.84766L6.46875-10.0195C7.10156-14.8477 7.94531-19.5938 9-24.2578 9.82031-27.7031 10.3477-30.3398 10.582-32.168 10.7695-33.457 11.4082-34.5645 12.498-35.4902 13.5879-36.416 14.8242-36.8789 16.207-36.8789 17.4258-36.8789 18.416-36.5156 19.1777-35.7891 19.9395-35.0625 20.3203-34.1133 20.3203-32.9414 20.3203-32.0039 19.8047-29.2969 18.7734-24.8203 17.7422-20.3438 16.9629-16.0195 16.4355-11.8477 15.9082-7.67578 15.5098-4.88672 15.2402-3.48047 14.9707-2.07422 14.3145-0.960937 13.2715-0.140625 12.2285 0.679687 11.0508 1.08984 9.73828 1.08984Z" fill="#6EAAE6" transform="translate(47.6671 95)"/></g></g><text fill="#6EAAE6" font-family="Comic Sans MS,Comic Sans MS_MSFontService,sans-serif" font-style="italic" font-weight="700" font-size="72" transform="translate(550.667 384)">i</text><g clip-path="url(#clip10)" filter="url(#fx2)" transform="translate(524 292)"><g><path d="M18.0352-32.4844C21.9961-35.9297 25.8633-37.6523 29.6367-37.6523 35.543-37.6523 38.4961-34.2539 38.4961-27.457 38.4961-25.6055 38.2969-23.4375 37.8984-20.9531L37.4766-18.4219C36.8906-14.9062 36.5977-11.7891 36.5977-9.07031 36.5977-5.88281 36.5156-3.63867 36.3516-2.33789 36.1875-1.03711 35.584 0.0996094 34.541 1.07227 33.498 2.04492 32.25 2.53125 30.7969 2.53125 28.0078 2.53125 26.6133 1.18359 26.6133-1.51172 26.6133-7.44141 26.7891-11.7949 27.1406-14.5723 27.4922-17.3496 28.0781-20.4375 28.8984-23.8359 29.2266-25.1484 29.3906-26.0742 29.3906-26.6133 29.3906-27.7852 28.9922-28.3711 28.1953-28.3711 25.9687-28.3711 23.6016-27.0527 21.0938-24.416 18.5859-21.7793 16.6934-19.084 15.416-16.3301 14.1387-13.5762 13.3594-10.0781 13.0781-5.83594 12.9844-3.79688 12.7969-2.38477 12.5156-1.59961 12.2344-0.814453 11.6191-0.0644531 10.6699 0.650391 9.7207 1.36523 8.57812 1.72266 7.24219 1.72266 6.02344 1.72266 5.02148 1.37109 4.23633 0.667969 3.45117-0.0351562 3.05859-0.9375 3.05859-2.03906L3.33984-5.83594C3.52734-8.41406 4.27734-12.5156 5.58984-18.1406 6.85547-23.3437 7.58203-26.9414 7.76953-28.9336 7.95703-31.1367 8.15039-32.8242 8.34961-33.9961 8.54883-35.168 9.18164-36.1934 10.248-37.0723 11.3145-37.9512 12.5625-38.3906 13.9922-38.3906 17.0391-38.3906 18.3867-36.5625 18.0352-32.9062Z" fill="#6EAAE6" transform="translate(48.0004 95)"/></g></g><text fill="#6EAAE6" font-family="Comic Sans MS,Comic Sans MS_MSFontService,sans-serif" font-style="italic" font-weight="700" font-size="72" transform="translate(572 384)">n</text><g clip-path="url(#clip11)" filter="url(#fx3)" transform="translate(563 292)"><g><path d="M38.5312-26.8594C40.7109-25.6641 42.4395-24.0352 43.7168-21.9727 44.9941-19.9102 45.6328-17.8359 45.6328-15.75 45.6328-10.5938 42.4805-6.4043 36.1758-3.18164 29.8711 0.0410155 21.1758 1.65234 10.0898 1.65234 8.66016 1.65234 7.48242 1.08398 6.55664-0.0527344 5.63086-1.18945 5.27344-2.44922 5.48438-3.83203L11.3906-41.0977C11.4141-41.1914 11.5312-42.2695 11.7422-44.332 12.1406-48.1289 12.7148-50.6016 13.4648-51.75 14.2148-52.8984 16.0137-53.7656 18.8613-54.3516 21.709-54.9375 24.9727-55.2305 28.6523-55.2305 33.1289-55.2305 37.1484-53.8184 40.7109-50.9941 44.2734-48.1699 46.0547-44.7539 46.0547-40.7461 46.0547-35.1211 43.5469-30.4922 38.5312-26.8594ZM27.1406-45.7031 23.4844-45.7031C22.5938-45.7031 21.9844-45.6797 21.6562-45.6328L20.5312-38.1445 19.3008-30.832C20.8477-30.5977 22.1367-30.4805 23.168-30.4805 26.8711-30.4805 29.959-31.2891 32.4316-32.9062 34.9043-34.5234 36.1406-36.5977 36.1406-39.1289 36.1406-40.7227 35.2148-42.2168 33.3633-43.6113 31.5117-45.0059 29.4375-45.7031 27.1406-45.7031ZM17.7891-21.0938 15.6797-7.91016C21.9141-8.28516 26.8477-8.98828 30.4805-10.0195 34.1133-11.0508 35.9297-12.6094 35.9297-14.6953 35.9297-16.4531 34.7812-17.9238 32.4844-19.1074 30.1875-20.291 28.4531-20.8828 27.2812-20.8828 25.1953-20.8828 22.0312-20.9531 17.7891-21.0938Z" fill="#9AC4EE" transform="translate(47.8337 95)"/></g></g><text fill="#9AC4EE" font-family="Comic Sans MS,Comic Sans MS_MSFontService,sans-serif" font-style="italic" font-weight="700" font-size="72" transform="translate(610.834 384)">B</text><g clip-path="url(#clip12)" filter="url(#fx4)" transform="translate(609 292)"><g><path d="M3.33984-12.375C3.33984-18.2344 5.4668-23.707 9.7207-28.793 13.9746-33.8789 19.4414-36.4219 26.1211-36.4219 29.9648-36.4219 32.9824-35.1152 35.1738-32.502 37.3652-29.8887 38.4609-26.4375 38.4609-22.1484 38.4609-15.9844 36.4512-10.4062 32.4316-5.41406 28.4121-0.421875 23.4023 2.07422 17.4023 2.07422 13.2305 2.07422 9.84375 0.708984 7.24219-2.02148 4.64062-4.75195 3.33984-8.20312 3.33984-12.375ZM13.1836-13.7812C13.1836-11.7891 13.6699-10.1953 14.6426-9 15.6152-7.80469 17.0156-7.20703 18.8438-7.20703 21.8906-7.20703 24.3164-8.49023 26.1211-11.0566 27.9258-13.623 28.8281-16.9219 28.8281-20.9531 28.8281-25.0781 27.2461-27.1406 24.082-27.1406 20.9883-27.1406 18.3984-25.6465 16.3125-22.6582 14.2266-19.6699 13.1836-16.7109 13.1836-13.7812Z" fill="#9AC4EE" transform="translate(48.3337 95)"/></g></g><text fill="#9AC4EE" font-family="Comic Sans MS,Comic Sans MS_MSFontService,sans-serif" font-style="italic" font-weight="700" font-size="72" transform="translate(657.334 384)">o</text><g clip-path="url(#clip13)" filter="url(#fx5)" transform="translate(648 292)"><g><path d="M3.33984-12.375C3.33984-18.2344 5.4668-23.707 9.7207-28.793 13.9746-33.8789 19.4414-36.4219 26.1211-36.4219 29.9648-36.4219 32.9824-35.1152 35.1738-32.502 37.3652-29.8887 38.4609-26.4375 38.4609-22.1484 38.4609-15.9844 36.4512-10.4062 32.4316-5.41406 28.4121-0.421875 23.4023 2.07422 17.4023 2.07422 13.2305 2.07422 9.84375 0.708984 7.24219-2.02148 4.64062-4.75195 3.33984-8.20312 3.33984-12.375ZM13.1836-13.7812C13.1836-11.7891 13.6699-10.1953 14.6426-9 15.6152-7.80469 17.0156-7.20703 18.8438-7.20703 21.8906-7.20703 24.3164-8.49023 26.1211-11.0566 27.9258-13.623 28.8281-16.9219 28.8281-20.9531 28.8281-25.0781 27.2461-27.1406 24.082-27.1406 20.9883-27.1406 18.3984-25.6465 16.3125-22.6582 14.2266-19.6699 13.1836-16.7109 13.1836-13.7812Z" fill="#9AC4EE" transform="translate(48.3337 95)"/></g></g><text fill="#9AC4EE" font-family="Comic Sans MS,Comic Sans MS_MSFontService,sans-serif" font-style="italic" font-weight="700" font-size="72" transform="translate(696.334 384)">o</text><g clip-path="url(#clip14)" filter="url(#fx6)" transform="translate(687 292)"><g><path d="M19.793-15.9961C17.1445-14.2852 15.4336-13.2305 14.6602-12.832 13.8633-9.05859 13.2422-5.92969 12.7969-3.44531 12.5625-2.10938 11.9238-0.996094 10.8809-0.105469 9.83789 0.785156 8.625 1.23047 7.24219 1.23047 4.45312 1.23047 3.05859-0.140625 3.05859-2.88281 3.05859-3.98437 3.66797-7.34766 4.88672-12.9727 5.77734-16.8867 6.35156-19.6641 6.60938-21.3047L10.7227-44.5781C10.8398-45.4453 10.957-46.6289 11.0742-48.1289 11.2617-50.5195 11.4902-52.1191 11.7598-52.9277 12.0293-53.7363 12.6562-54.5156 13.6406-55.2656 14.625-56.0156 15.7852-56.3906 17.1211-56.3906 18.3398-56.3906 19.3301-56.0273 20.0918-55.3008 20.8535-54.5742 21.2344-53.625 21.2344-52.4531L20.7773-48.0234C20.4492-44.5781 19.7109-40.0664 18.5625-34.4883 17.9297-31.4414 17.3555-28.1719 16.8398-24.6797 20.5195-27.2109 26.0859-31.6758 33.5391-38.0742 34.7344-39.1289 35.9766-39.6562 37.2656-39.6562 38.4609-39.6562 39.4805-39.252 40.3242-38.4434 41.168-37.6348 41.5898-36.6914 41.5898-35.6133 41.5898-34.7227 41.3613-33.9023 40.9043-33.1523 40.4473-32.4023 38.7715-30.7852 35.877-28.3008 32.9824-25.8164 30.4219-23.7305 28.1953-22.043L34.0312-12.5859C36.6094-8.41406 37.8984-5.42578 37.8984-3.62109 37.8984-2.35547 37.2891-1.19531 36.0703-0.140625 34.8516 0.914062 33.5039 1.44141 32.0273 1.44141 30.1758 1.44141 28.9219 0.550781 28.2656-1.23047 27.2812-3.85547 24.8789-8.10938 21.0586-13.9922 20.2852-15.1641 19.8633-15.832 19.793-15.9961Z" fill="#9AC4EE" transform="translate(48.3337 95)"/></g></g><text fill="#9AC4EE" font-family="Comic Sans MS,Comic Sans MS_MSFontService,sans-serif" font-style="italic" font-weight="700" font-size="72" transform="translate(735.334 384)">k</text></g></svg>